# This file uses centimeters as units for non-parametric coordinates.

v 10.927240 13.953309 0.651487
v 10.927240 13.953309 0.001487
v 10.927240 13.733309 0.501487
v 10.927240 13.953308 -0.648512
v 10.927240 13.733309 -0.498512
v 10.927240 13.669179 1.192656
v 10.927240 13.669178 -1.189681
v 10.927240 13.548285 1.469813
v 10.927240 13.548285 -1.466838
v 10.927240 13.293309 1.781487
v 10.927240 13.293308 -1.778512
v 10.927240 12.403310 1.781487
v 10.927240 12.403310 1.331488
v 10.927240 12.403310 -1.278512
v 10.927240 12.403310 -1.778512
v 10.927240 11.053310 1.331488
v 10.927240 11.053309 0.001488
v 10.927240 11.053309 -1.278512
vt 0.682584 0.960000
vt 0.500000 0.960000
vt 0.317416 0.960000
vt 0.640449 0.886667
vt 0.359551 0.886667
vt 0.834598 0.865290
vt 0.165402 0.865290
vt 0.912451 0.824992
vt 0.087549 0.824992
vt 1.000000 0.750000
vt 0.000000 0.750000
vt 1.000000 0.450000
vt 0.100449 0.450000
vt 0.879551 0.450000
vt 0.000000 0.450000
vt 0.500000 0.000000
vt 0.879551 0.000000
vt 0.100449 0.000000
vn -1.000000 0.000000 0.000000
vn -1.000000 0.000000 0.000000
vn -1.000000 0.000006 0.000000
vn -1.000000 0.000000 0.000000
vn -1.000000 -0.000002 0.000000
vn -1.000000 0.000000 0.000000
vn -1.000000 -0.000010 0.000000
vn -1.000000 0.000004 0.000000
vn -1.000000 0.000002 0.000000
vn -1.000000 0.000000 0.000000
vn -1.000000 0.000001 0.000000
vn -1.000000 -0.000000 0.000000
vn -1.000000 -0.000002 0.000000
vn -1.000000 0.000001 0.000000
vn -1.000000 0.000000 0.000000
vn -1.000000 0.000001 0.000000
vn -1.000000 0.000000 0.000000
vn -1.000000 0.000000 0.000000
f 1/1/1 2/2/2 3/4/3
f 3/4/3 2/2/2 4/3/4
f 4/3/4 5/5/5 3/4/3
f 3/4/3 5/5/5 6/6/6
f 7/7/7 8/8/8 5/5/5
f 5/5/5 8/8/8 6/6/6
f 7/7/7 9/9/9 8/8/8
f 8/8/8 9/9/9 10/10/10
f 11/11/11 12/12/12 9/9/9
f 9/9/9 12/12/12 10/10/10
f 12/12/12 11/11/11 13/14/13
f 11/11/11 14/13/14 13/14/13
f 14/13/14 11/11/11 15/15/15
f 14/13/14 17/16/16 13/14/13
f 13/14/13 17/16/16 16/17/17
f 18/18/18 17/16/16 14/13/14
